# xmcd
#
# Track frame offsets: 
#        150
#        17468
#        28527
#        37577
#        61845
#        72949
#        86556
#
# Disc length: 1381 seconds
#
# Revision: 0
# Processed by: cddbd v1.5.2PL0 Copyright (c) Steve Scherf et al.
# Submitted via: ExactAudioCopyFreeDBPlugin 1.0
#
DISCID=45056307
DTITLE=Keen Kousins "Rockabilly Duo" - Well Alright
DYEAR=2005
DGENRE=Rockabilly
TTITLE0=Derailed
TTITLE1=Big Bad Ole Heartache
TTITLE2=Well Alright
TTITLE3=Sick and Tired
TTITLE4=Clock Ticking Rhythm
TTITLE5=Too Hot For The Devil
TTITLE6=I Gotta Go
EXTD=
EXTT0=
EXTT1=
EXTT2=
EXTT3=
EXTT4=
EXTT5=
EXTT6=
PLAYORDER=
